<svg width="935" height="173" viewBox="0 0 935 173" fill="none" xmlns="http://www.w3.org/2000/svg">
<g filter="url(#filter0_i_12_2)">
<rect width="934.732" height="172.994" rx="20" fill="url(#paint0_linear_12_2)"/>
<path d="M110.9 92.9969V80.3969H126.5V92.9969H135.9V59.4969H126.5V71.9469H110.9V59.4969H101.5V92.9969H110.9ZM149.302 65.4969V59.4969H139.902V65.4969H149.302ZM149.302 92.9969V67.7969H139.902V92.9969H149.302ZM173.387 81.9969C173.387 78.6469 174.687 66.8469 174.687 62.9969V59.4969H162.487V62.9969C162.487 66.8469 163.787 78.5969 163.787 81.9969H173.387ZM173.937 92.9969V84.1469H163.187V92.9969H173.937ZM197.248 92.9969V59.4969H187.848V92.9969H197.248ZM205.15 77.3969C210.4 77.3969 213.45 74.8969 213.45 69.7469V59.4969H201.25V69.0969H206.6V69.7969C206.6 71.2469 206.05 71.5969 204.85 71.5969H201.7V77.3969H205.15ZM226.836 92.9969V79.9969C226.836 76.7469 227.636 75.6969 231.486 75.6969C235.386 75.6969 236.386 76.7969 236.386 80.2969V92.9969H245.786V79.9969C245.786 76.7469 246.586 75.6969 250.436 75.6969C254.336 75.6969 255.336 76.7969 255.336 80.2969V92.9969H264.736V76.8469C264.736 71.3969 261.686 67.2969 255.236 67.2969C248.686 67.2969 246.286 71.2469 245.736 75.4469H245.236C244.736 70.8969 241.886 67.2969 235.936 67.2969C229.586 67.2969 227.286 71.2469 226.736 75.4469H226.236V67.7969H217.436V92.9969H226.836ZM294.516 93.4969C305.766 93.4969 312.516 88.1469 312.516 79.1969V78.3469H302.016V79.1969C302.016 82.9969 300.216 84.4969 294.666 84.4969C287.866 84.4969 286.016 82.8969 286.016 76.2469C286.016 69.5969 287.866 67.9969 294.666 67.9969C300.216 67.9969 302.016 69.4969 302.016 73.2969V74.1469H312.516V73.2969C312.516 64.3469 305.766 58.9969 294.516 58.9969C282.866 58.9969 276.016 65.7969 276.016 76.2469C276.016 86.6969 282.866 93.4969 294.516 93.4969ZM334.892 64.9969L344.992 58.4969H331.392L324.692 64.9969H334.892ZM330.042 93.4969C338.542 93.4969 343.892 89.5469 343.892 83.9469V83.3469H334.492V83.8969C334.492 85.3969 333.492 86.0469 329.692 86.0469C325.692 86.0469 324.342 85.1969 324.192 82.1469H343.942C344.042 81.2469 344.092 80.5969 344.092 79.7469C344.092 71.6469 338.542 67.2969 329.842 67.2969C321.442 67.2969 315.492 72.1969 315.492 80.3969C315.492 89.8469 321.492 93.4969 330.042 93.4969ZM329.642 74.4969C333.142 74.4969 334.642 75.2469 334.992 77.3969H324.342C324.742 75.2469 326.192 74.4969 329.642 74.4969ZM357.007 92.9969V59.4969H347.607V92.9969H357.007ZM375.06 93.4969C383.56 93.4969 388.91 89.5469 388.91 83.9469V83.3469H379.51V83.8969C379.51 85.3969 378.51 86.0469 374.71 86.0469C370.71 86.0469 369.36 85.1969 369.21 82.1469H388.96C389.06 81.2469 389.11 80.5969 389.11 79.7469C389.11 71.6469 383.56 67.2969 374.86 67.2969C366.46 67.2969 360.51 72.1969 360.51 80.3969C360.51 89.8469 366.51 93.4969 375.06 93.4969ZM374.66 74.4969C378.16 74.4969 379.66 75.2469 380.01 77.3969H369.36C369.76 75.2469 371.21 74.4969 374.66 74.4969ZM406.175 93.4969C414.525 93.4969 419.225 90.0969 419.225 85.3969C419.225 81.1469 416.875 78.6969 409.525 77.8969L404.525 77.3469C401.575 77.0469 401.175 76.6969 401.175 75.9969C401.175 75.0469 401.575 74.6469 404.625 74.6469C408.425 74.6469 408.925 75.2469 408.925 76.5469V76.8469H418.325V76.6469C418.325 70.4469 413.675 67.2969 404.925 67.2969C395.475 67.2969 391.925 71.1469 391.925 75.5969C391.925 79.8469 394.725 82.2969 399.925 82.8469L407.225 83.6469C409.575 83.8969 409.975 84.0969 409.975 84.8969C409.975 85.7469 409.475 86.0969 406.225 86.0969C402.825 86.0969 401.925 85.9469 401.925 84.5469V84.0469H392.525V84.2469C392.525 90.0469 397.275 93.4969 406.175 93.4969ZM441.332 92.9969V84.5469H436.832C434.682 84.5469 434.082 84.0469 434.082 82.0469V75.4969H441.332V67.7969H434.082V63.4469H424.682V67.7969H420.982V75.4969H424.682V83.3969C424.682 89.9469 428.432 92.9969 434.732 92.9969H441.332ZM453.976 65.4969V59.4969H444.576V65.4969H453.976ZM453.976 92.9969V67.7969H444.576V92.9969H453.976ZM467.379 92.9969V79.9969C467.379 76.7469 468.379 75.6969 472.529 75.6969C476.629 75.6969 477.929 76.7969 477.929 80.2969V92.9969H487.329V76.8469C487.329 71.3969 484.129 67.2969 477.329 67.2969C470.579 67.2969 467.829 71.2469 467.279 75.4469H466.779V67.7969H457.979V92.9969H467.379Z" fill="white"/>
<path d="M104.06 120.997L105.2 118.017H108.84L107.68 120.997H109.8L110.96 118.017H115.02V116.097H111.72L112.98 112.777H116.58V110.857H113.76L115.02 107.597H112.9L111.64 110.857H108L109.26 107.597H107.14L105.88 110.857H101.94V112.777H105.12L103.86 116.097H100.4V118.017H103.08L101.94 120.997H104.06ZM107.18 112.737H110.96L109.66 116.137H105.88L107.18 112.737ZM123.591 120.997L125.131 117.517H132.211L133.751 120.997H136.191L130.211 107.597H127.171L121.191 120.997H123.591ZM127.811 111.497L128.591 109.597H128.751L129.531 111.497L131.351 115.577H125.991L127.811 111.497ZM146.109 121.197C148.909 121.197 150.749 120.097 150.749 118.237C150.749 116.597 149.669 115.797 147.309 115.497L145.009 115.177C143.509 114.977 143.109 114.697 143.109 113.917C143.109 112.977 143.749 112.577 145.569 112.577C147.769 112.577 148.369 113.197 148.369 114.377V114.497H150.509V114.437C150.509 112.077 148.669 110.857 145.629 110.857C142.569 110.857 140.989 112.097 140.989 113.837C140.989 115.497 142.129 116.297 144.009 116.537L146.729 116.897C148.149 117.097 148.629 117.357 148.629 118.177C148.629 119.057 148.049 119.457 146.109 119.457C144.029 119.457 143.249 119.037 143.249 117.737V117.577H141.089V117.637C141.089 119.937 142.909 121.197 146.109 121.197ZM159.227 120.997V119.057H157.427C156.187 119.057 155.627 118.737 155.627 117.517V112.857H159.227V111.057H155.627V108.877H153.487V111.057H151.807V112.857H153.487V117.637C153.487 120.057 154.807 120.997 156.947 120.997H159.227ZM165.118 121.197C167.678 121.197 168.998 119.597 169.318 117.917H169.438V120.997H171.418V111.057H169.278V115.977C169.278 118.137 168.258 119.257 166.058 119.257C163.958 119.257 163.098 118.317 163.098 116.457V111.057H160.958V117.037C160.958 119.337 162.318 121.197 165.118 121.197ZM178.16 121.197C180.4 121.197 181.86 120.117 182.28 118.137H182.42V120.997H184.4V107.597H182.24V113.757H182.12C181.72 112.077 180.38 110.857 178.02 110.857C175 110.857 173.28 112.937 173.28 116.037C173.28 119.097 175.02 121.197 178.16 121.197ZM175.46 116.037C175.46 113.637 176.7 112.817 178.78 112.817C181 112.817 182.24 113.857 182.24 115.977V116.137C182.24 118.217 180.94 119.217 178.82 119.217C176.68 119.217 175.46 118.417 175.46 116.037ZM191.798 121.197C194.758 121.197 196.838 119.737 196.838 117.617V117.437H194.678V117.597C194.678 118.777 193.818 119.457 191.738 119.457C189.438 119.457 188.498 118.437 188.418 116.517H196.858C196.918 116.217 196.938 115.937 196.938 115.577C196.938 112.557 194.838 110.857 191.758 110.857C188.518 110.857 186.398 112.937 186.398 116.037C186.398 119.357 188.538 121.197 191.798 121.197ZM191.718 112.557C193.838 112.557 194.898 113.437 194.898 115.277V115.317H188.438C188.558 113.537 189.518 112.557 191.718 112.557ZM201.115 120.997V116.077C201.115 113.917 202.095 112.797 204.275 112.797C206.335 112.797 207.175 113.737 207.175 115.597V120.997H209.335V115.017C209.335 112.717 207.975 110.857 205.215 110.857C202.695 110.857 201.375 112.457 201.075 114.137H200.935V111.057H198.955V120.997H201.115ZM218.18 120.997V119.057H216.38C215.14 119.057 214.58 118.737 214.58 117.517V112.857H218.18V111.057H214.58V108.877H212.44V111.057H210.76V112.857H212.44V117.637C212.44 120.057 213.76 120.997 215.9 120.997H218.18ZM225.909 109.897V107.597H223.749V109.897H225.909ZM225.909 120.997V111.057H223.749V120.997H225.909ZM230.469 120.997V116.077C230.469 113.917 231.449 112.797 233.629 112.797C235.689 112.797 236.529 113.737 236.529 115.597V120.997H238.689V115.017C238.689 112.717 237.329 110.857 234.569 110.857C232.049 110.857 230.729 112.457 230.429 114.137H230.289V111.057H228.309V120.997H230.469ZM246.992 120.997V116.177C246.992 114.077 247.832 112.797 250.192 112.797C252.252 112.797 253.152 113.597 253.152 115.597V120.997H255.292V115.077C255.292 112.657 253.952 110.857 251.212 110.857C248.672 110.857 247.452 112.417 247.112 114.097H246.992V107.597H244.832V120.997H246.992ZM259.794 109.897V107.597H257.634V109.897H259.794ZM259.794 120.997V111.057H257.634V120.997H259.794ZM266.515 120.097C268.775 120.097 270.115 119.017 270.475 117.517H270.615V119.957C270.615 122.177 269.795 122.797 267.535 122.797C265.415 122.797 264.575 122.257 264.575 120.817H262.435C262.435 123.217 264.475 124.597 267.415 124.597C270.675 124.597 272.755 123.177 272.755 119.837V111.057H270.775V113.537H270.655C270.295 111.797 268.735 110.857 266.655 110.857C263.635 110.857 261.795 112.717 261.795 115.477C261.795 118.237 263.555 120.097 266.515 120.097ZM263.975 115.477C263.975 113.437 265.195 112.737 267.275 112.737C269.375 112.737 270.615 113.597 270.615 115.277V115.557C270.615 117.317 269.415 118.237 267.215 118.237C265.175 118.237 263.975 117.517 263.975 115.477ZM277.313 120.997V116.177C277.313 114.077 278.153 112.797 280.513 112.797C282.573 112.797 283.473 113.597 283.473 115.597V120.997H285.613V115.077C285.613 112.657 284.273 110.857 281.533 110.857C278.993 110.857 277.773 112.417 277.433 114.097H277.313V107.597H275.153V120.997H277.313ZM296.473 121.197C299.273 121.197 301.113 120.097 301.113 118.237C301.113 116.597 300.033 115.797 297.673 115.497L295.373 115.177C293.873 114.977 293.473 114.697 293.473 113.917C293.473 112.977 294.113 112.577 295.933 112.577C298.133 112.577 298.733 113.197 298.733 114.377V114.497H300.873V114.437C300.873 112.077 299.033 110.857 295.993 110.857C292.933 110.857 291.353 112.097 291.353 113.837C291.353 115.497 292.493 116.297 294.373 116.537L297.093 116.897C298.513 117.097 298.993 117.357 298.993 118.177C298.993 119.057 298.413 119.457 296.473 119.457C294.393 119.457 293.613 119.037 293.613 117.737V117.577H291.453V117.637C291.453 119.937 293.273 121.197 296.473 121.197ZM308.092 121.197C311.072 121.197 313.252 119.517 313.252 117.037V116.817H311.112V116.957C311.112 118.497 309.992 119.257 308.052 119.257C305.812 119.257 304.812 118.177 304.812 116.037C304.812 113.857 305.812 112.797 308.052 112.797C309.992 112.797 311.112 113.557 311.112 115.097V115.217H313.252V115.017C313.252 112.537 311.072 110.857 308.092 110.857C304.812 110.857 302.672 112.937 302.672 116.037C302.672 119.097 304.812 121.197 308.092 121.197ZM317.409 120.997V116.177C317.409 114.077 318.249 112.797 320.609 112.797C322.669 112.797 323.569 113.597 323.569 115.597V120.997H325.709V115.077C325.709 112.657 324.369 110.857 321.629 110.857C319.089 110.857 317.869 112.417 317.529 114.097H317.409V107.597H315.249V120.997H317.409ZM333.132 121.197C336.452 121.197 338.672 119.097 338.672 116.037C338.672 112.937 336.452 110.857 333.132 110.857C329.832 110.857 327.612 112.937 327.612 116.037C327.612 119.097 329.832 121.197 333.132 121.197ZM333.132 119.277C330.732 119.277 329.732 118.137 329.732 116.037C329.732 113.917 330.732 112.757 333.132 112.757C335.552 112.757 336.552 113.917 336.552 116.037C336.552 118.137 335.552 119.277 333.132 119.277ZM345.719 121.197C349.039 121.197 351.259 119.097 351.259 116.037C351.259 112.937 349.039 110.857 345.719 110.857C342.419 110.857 340.199 112.937 340.199 116.037C340.199 119.097 342.419 121.197 345.719 121.197ZM345.719 119.277C343.319 119.277 342.319 118.137 342.319 116.037C342.319 113.917 343.319 112.757 345.719 112.757C348.139 112.757 349.139 113.917 349.139 116.037C349.139 118.137 348.139 119.277 345.719 119.277ZM355.387 120.997V107.597H353.227V120.997H355.387ZM360.107 120.997V117.897H357.387V120.997H360.107Z" fill="white" fill-opacity="0.8"/>
<path d="M805.515 63.9253C807.618 72.1205 810.2 82.1776 812.718 86.4357C813.59 85.1076 813.949 82.6861 815.693 76.93C817.269 71.7322 821.737 72.0004 823.55 72.7076C827.554 74.3072 828.077 78.7432 827.664 80.272C827.007 82.709 827.011 82.6228 825.502 88.53C823.295 97.1682 825.512 104.375 824.5 111.925C822.009 126.052 808.404 130.811 799.737 129.283C792.804 128.06 786.65 122.401 784.44 119.724L773.533 105.559C772.16 104.041 768.946 99.2618 767.634 96.6089C764.058 89.3768 771.641 86.1682 775.271 87.9481C775.011 87.6651 773.716 84.3988 773.101 82.8012C771.593 77.7023 774.478 74.992 776.354 74.4386C780.61 73.1831 783.098 75.8787 783.794 77.2322C783.552 76.5817 782.885 74.0084 781.905 69.331C780.924 64.6535 784.219 62.4519 785.99 61.9358C789.815 60.9235 792.81 63.5943 793.322 65.5996C793.573 66.5815 794.936 71.8331 795.524 74.1471C795.109 72.2411 794.413 68.4776 794.234 66.7633C793.984 62.7527 796.682 60.5082 798.216 60.0797C800.35 59.4839 804.498 59.9607 805.489 63.8241L805.515 63.9253Z" fill="url(#paint1_radial_12_2)"/>
<path d="M805.515 63.9252C807.618 72.1204 810.199 82.1775 812.718 86.4357C813.59 85.1076 813.949 82.6861 815.693 76.9299C817.268 71.7321 821.737 72.0003 823.55 72.7076C827.553 74.3071 828.077 78.7432 827.664 80.2719C827.007 82.7089 827.011 82.6227 825.502 88.53C823.295 97.1682 825.512 104.375 824.499 111.924C822.008 126.052 808.404 130.811 799.737 129.283C792.804 128.06 786.65 122.401 784.44 119.724L773.533 105.559C772.16 104.04 768.946 99.2618 767.634 96.6088C764.058 89.3768 771.641 86.1682 775.271 87.948C775.01 87.665 773.716 84.3987 773.101 82.8011C771.593 77.7023 774.478 74.9919 776.354 74.4386C780.61 73.183 783.098 75.8786 783.794 77.2322C783.551 76.5816 782.885 74.0083 781.904 69.3309C780.924 64.6534 784.219 62.4519 785.989 61.9358C789.815 60.9235 792.81 63.5943 793.322 65.5995C793.573 66.5814 794.935 71.8331 795.524 74.147C795.109 72.2411 794.412 68.4775 794.234 66.7633C793.984 62.7527 796.682 60.5081 798.216 60.0796C800.35 59.4839 804.497 59.9606 805.489 63.824L805.515 63.9252Z" fill="url(#paint2_radial_12_2)"/>
<path d="M827.665 80.2717C827.007 82.7089 827.011 82.6227 825.502 88.53C824.722 91.5821 824.395 103.272 824.395 103.272C820.071 103.886 811.528 100.554 812.718 86.4354C813.59 85.1075 813.949 82.6861 815.693 76.93C817.268 71.732 821.737 72.0003 823.55 72.7075C827.554 74.307 828.077 78.7431 827.665 80.2717Z" fill="url(#paint3_radial_12_2)"/>
<path d="M827.665 80.2717C827.007 82.7089 827.011 82.6227 825.502 88.53C824.722 91.5821 824.395 103.272 824.395 103.272C820.071 103.886 811.528 100.554 812.718 86.4354C813.59 85.1075 813.949 82.6861 815.693 76.93C817.268 71.732 821.737 72.0003 823.55 72.7075C827.554 74.307 828.077 78.7431 827.665 80.2717Z" fill="url(#paint4_radial_12_2)"/>
<path d="M827.665 80.2717C827.007 82.7089 827.011 82.6227 825.502 88.53C824.722 91.5821 824.395 103.272 824.395 103.272C820.071 103.886 811.528 100.554 812.718 86.4354C813.59 85.1075 813.949 82.6861 815.693 76.93C817.268 71.732 821.737 72.0003 823.55 72.7075C827.554 74.307 828.077 78.7431 827.665 80.2717Z" fill="url(#paint5_radial_12_2)"/>
<path d="M805.515 63.9252C807.618 72.1205 810.2 82.1776 812.718 86.4357C811.475 90.5811 807.335 91.9377 804.209 90.6053C800.309 88.6871 799.264 85.4953 799.264 85.4953C799.264 85.4953 798.484 83.6441 797.758 81.6294C796.92 79.2987 797.132 79.3852 795.779 75.1966C795.513 74.3748 794.46 68.9307 794.234 66.7633C793.984 62.7527 796.682 60.5082 798.216 60.0797C800.35 59.4839 804.497 59.9606 805.489 63.824L805.515 63.9252Z" fill="url(#paint6_radial_12_2)"/>
<path d="M805.515 63.9252C807.618 72.1205 810.2 82.1776 812.718 86.4357C811.475 90.5811 807.335 91.9377 804.209 90.6053C800.309 88.6871 799.264 85.4953 799.264 85.4953C799.264 85.4953 798.484 83.6441 797.758 81.6294C796.92 79.2987 797.132 79.3852 795.779 75.1966C795.513 74.3748 794.46 68.9307 794.234 66.7633C793.984 62.7527 796.682 60.5082 798.216 60.0797C800.35 59.4839 804.497 59.9606 805.489 63.824L805.515 63.9252Z" fill="url(#paint7_linear_12_2)"/>
<path d="M805.515 63.9252C807.618 72.1205 810.2 82.1776 812.718 86.4357C811.475 90.5811 807.335 91.9377 804.209 90.6053C800.309 88.6871 799.264 85.4953 799.264 85.4953C799.264 85.4953 798.484 83.6441 797.758 81.6294C796.92 79.2987 797.132 79.3852 795.779 75.1966C795.513 74.3748 794.46 68.9307 794.234 66.7633C793.984 62.7527 796.682 60.5082 798.216 60.0797C800.35 59.4839 804.497 59.9606 805.489 63.824L805.515 63.9252Z" fill="url(#paint8_radial_12_2)"/>
<path d="M805.515 63.9252C807.618 72.1205 810.2 82.1776 812.718 86.4357C811.475 90.5811 807.335 91.9377 804.209 90.6053C800.309 88.6871 799.264 85.4953 799.264 85.4953C799.264 85.4953 798.484 83.6441 797.758 81.6294C796.92 79.2987 797.132 79.3852 795.779 75.1966C795.513 74.3748 794.46 68.9307 794.234 66.7633C793.984 62.7527 796.682 60.5082 798.216 60.0797C800.35 59.4839 804.497 59.9606 805.489 63.824L805.515 63.9252Z" fill="url(#paint9_radial_12_2)"/>
<path d="M805.515 63.9252C807.618 72.1205 810.2 82.1776 812.718 86.4357C811.475 90.5811 807.335 91.9377 804.209 90.6053C800.309 88.6871 799.264 85.4953 799.264 85.4953C799.264 85.4953 798.484 83.6441 797.758 81.6294C796.92 79.2987 797.132 79.3852 795.779 75.1966C795.513 74.3748 794.46 68.9307 794.234 66.7633C793.984 62.7527 796.682 60.5082 798.216 60.0797C800.35 59.4839 804.497 59.9606 805.489 63.824L805.515 63.9252Z" fill="url(#paint10_linear_12_2)"/>
<path d="M793.322 65.5994C793.66 66.9203 796.008 75.9664 795.779 75.1966C796.399 77.6966 798.585 83.9169 799.241 85.6277C800.686 89.3997 797.876 91.8304 796.23 92.434C791.502 94.1688 789.598 90.5582 789.598 90.5582C787.921 86.8426 786.516 83.7484 783.817 77.2116C783.216 75.3588 782.242 71.2829 781.905 69.3307C781.071 64.5121 784.219 62.4518 785.99 61.9357C789.815 60.9234 792.809 63.5942 793.322 65.5994Z" fill="url(#paint11_radial_12_2)"/>
<path d="M793.322 65.5994C793.66 66.9203 796.008 75.9664 795.779 75.1966C796.399 77.6966 798.585 83.9169 799.241 85.6277C800.686 89.3997 797.876 91.8304 796.23 92.434C791.502 94.1688 789.598 90.5582 789.598 90.5582C787.921 86.8426 786.516 83.7484 783.817 77.2116C783.216 75.3588 782.242 71.2829 781.905 69.3307C781.071 64.5121 784.219 62.4518 785.99 61.9357C789.815 60.9234 792.809 63.5942 793.322 65.5994Z" fill="url(#paint12_linear_12_2)"/>
<path d="M793.322 65.5994C793.66 66.9203 796.008 75.9664 795.779 75.1966C796.399 77.6966 798.585 83.9169 799.241 85.6277C800.686 89.3997 797.876 91.8304 796.23 92.434C791.502 94.1688 789.598 90.5582 789.598 90.5582C787.921 86.8426 786.516 83.7484 783.817 77.2116C783.216 75.3588 782.242 71.2829 781.905 69.3307C781.071 64.5121 784.219 62.4518 785.99 61.9357C789.815 60.9234 792.809 63.5942 793.322 65.5994Z" fill="url(#paint13_radial_12_2)"/>
<path d="M793.322 65.5994C793.66 66.9203 796.008 75.9664 795.779 75.1966C796.399 77.6966 798.585 83.9169 799.241 85.6277C800.686 89.3997 797.876 91.8304 796.23 92.434C791.502 94.1688 789.598 90.5582 789.598 90.5582C787.921 86.8426 786.516 83.7484 783.817 77.2116C783.216 75.3588 782.242 71.2829 781.905 69.3307C781.071 64.5121 784.219 62.4518 785.99 61.9357C789.815 60.9234 792.809 63.5942 793.322 65.5994Z" fill="url(#paint14_radial_12_2)"/>
<path d="M793.322 65.5994C793.66 66.9203 796.008 75.9664 795.779 75.1966C796.399 77.6966 798.585 83.9169 799.241 85.6277C800.686 89.3997 797.876 91.8304 796.23 92.434C791.502 94.1688 789.598 90.5582 789.598 90.5582C787.921 86.8426 786.516 83.7484 783.817 77.2116C783.216 75.3588 782.242 71.2829 781.905 69.3307C781.071 64.5121 784.219 62.4518 785.99 61.9357C789.815 60.9234 792.809 63.5942 793.322 65.5994Z" fill="url(#paint15_radial_12_2)"/>
<path d="M793.322 65.5994C793.66 66.9203 796.008 75.9664 795.779 75.1966C796.399 77.6966 798.585 83.9169 799.241 85.6277C800.686 89.3997 797.876 91.8304 796.23 92.434C791.502 94.1688 789.598 90.5582 789.598 90.5582C787.921 86.8426 786.516 83.7484 783.817 77.2116C783.216 75.3588 782.242 71.2829 781.905 69.3307C781.071 64.5121 784.219 62.4518 785.99 61.9357C789.815 60.9234 792.809 63.5942 793.322 65.5994Z" fill="url(#paint16_linear_12_2)"/>
<path d="M776.354 74.4384C780.61 73.1828 783.098 75.8784 783.794 77.232C785.868 81.9933 788.383 87.4357 789.487 90.2876C792.43 97.8931 783.395 99.3763 783.395 99.3763C777.127 89.1792 775.758 88.4779 775.271 87.9478C775.011 87.6648 773.716 84.3985 773.101 82.8008C771.593 77.7023 774.478 74.9916 776.354 74.4384Z" fill="url(#paint17_radial_12_2)"/>
<path d="M776.354 74.4384C780.61 73.1828 783.098 75.8784 783.794 77.232C785.868 81.9933 788.383 87.4357 789.487 90.2876C792.43 97.8931 783.395 99.3763 783.395 99.3763C777.127 89.1792 775.758 88.4779 775.271 87.9478C775.011 87.6648 773.716 84.3985 773.101 82.8008C771.593 77.7023 774.478 74.9916 776.354 74.4384Z" fill="url(#paint18_linear_12_2)"/>
<path d="M776.354 74.4384C780.61 73.1828 783.098 75.8784 783.794 77.232C785.868 81.9933 788.383 87.4357 789.487 90.2876C792.43 97.8931 783.395 99.3763 783.395 99.3763C777.127 89.1792 775.758 88.4779 775.271 87.9478C775.011 87.6648 773.716 84.3985 773.101 82.8008C771.593 77.7023 774.478 74.9916 776.354 74.4384Z" fill="url(#paint19_radial_12_2)"/>
<path d="M776.354 74.4384C780.61 73.1828 783.098 75.8784 783.794 77.232C785.868 81.9933 788.383 87.4357 789.487 90.2876C792.43 97.8931 783.395 99.3763 783.395 99.3763C777.127 89.1792 775.758 88.4779 775.271 87.9478C775.011 87.6648 773.716 84.3985 773.101 82.8008C771.593 77.7023 774.478 74.9916 776.354 74.4384Z" fill="url(#paint20_radial_12_2)"/>
<path d="M776.354 74.4384C780.61 73.1828 783.098 75.8784 783.794 77.232C785.868 81.9933 788.383 87.4357 789.487 90.2876C792.43 97.8931 783.395 99.3763 783.395 99.3763C777.127 89.1792 775.758 88.4779 775.271 87.9478C775.011 87.6648 773.716 84.3985 773.101 82.8008C771.593 77.7023 774.478 74.9916 776.354 74.4384Z" fill="url(#paint21_radial_12_2)"/>
<path d="M776.354 74.4384C780.61 73.1828 783.098 75.8784 783.794 77.232C785.868 81.9933 788.383 87.4357 789.487 90.2876C792.43 97.8931 783.395 99.3763 783.395 99.3763C777.127 89.1792 775.758 88.4779 775.271 87.9478C775.011 87.6648 773.716 84.3985 773.101 82.8008C771.593 77.7023 774.478 74.9916 776.354 74.4384Z" fill="url(#paint22_radial_12_2)"/>
<path d="M767.634 96.6089C764.058 89.3765 771.641 86.168 775.271 87.9478C776.885 89.3875 779.187 92.684 780.158 94.1573C786.439 102.892 784.772 104.951 782.208 107.089C779.851 108.432 776.938 109.325 773.533 105.559C772.16 104.04 768.946 99.2615 767.634 96.6089Z" fill="url(#paint23_radial_12_2)"/>
<path d="M767.634 96.6089C764.058 89.3765 771.641 86.168 775.271 87.9478C776.885 89.3875 779.187 92.684 780.158 94.1573C786.439 102.892 784.772 104.951 782.208 107.089C779.851 108.432 776.938 109.325 773.533 105.559C772.16 104.04 768.946 99.2615 767.634 96.6089Z" fill="url(#paint24_radial_12_2)"/>
<path d="M767.634 96.6089C764.058 89.3765 771.641 86.168 775.271 87.9478C776.885 89.3875 779.187 92.684 780.158 94.1573C786.439 102.892 784.772 104.951 782.208 107.089C779.851 108.432 776.938 109.325 773.533 105.559C772.16 104.04 768.946 99.2615 767.634 96.6089Z" fill="url(#paint25_radial_12_2)"/>
<path d="M767.634 96.6089C764.058 89.3765 771.641 86.168 775.271 87.9478C776.885 89.3875 779.187 92.684 780.158 94.1573C786.439 102.892 784.772 104.951 782.208 107.089C779.851 108.432 776.938 109.325 773.533 105.559C772.16 104.04 768.946 99.2615 767.634 96.6089Z" fill="url(#paint26_radial_12_2)"/>
<path d="M767.634 96.6089C764.058 89.3765 771.641 86.168 775.271 87.9478C776.885 89.3875 779.187 92.684 780.158 94.1573C786.439 102.892 784.772 104.951 782.208 107.089C779.851 108.432 776.938 109.325 773.533 105.559C772.16 104.04 768.946 99.2615 767.634 96.6089Z" fill="url(#paint27_linear_12_2)"/>
<path d="M805.515 63.9252C807.618 72.1204 810.199 82.1775 812.718 86.4357C813.59 85.1076 813.949 82.6861 815.693 76.9299C817.268 71.7321 821.737 72.0003 823.55 72.7076C827.553 74.3071 828.077 78.7432 827.664 80.2719C827.007 82.7089 827.011 82.6227 825.502 88.53C823.295 97.1682 825.512 104.375 824.499 111.924C822.008 126.052 808.404 130.811 799.737 129.283C792.804 128.06 786.65 122.401 784.44 119.724L773.533 105.559C772.16 104.04 768.946 99.2618 767.634 96.6088C764.058 89.3768 771.641 86.1682 775.271 87.948C775.01 87.665 773.716 84.3987 773.101 82.8011C771.593 77.7023 774.478 74.9919 776.354 74.4386C780.61 73.183 783.098 75.8786 783.794 77.2322C783.551 76.5816 782.885 74.0083 781.904 69.3309C780.924 64.6534 784.219 62.4519 785.989 61.9358C789.815 60.9235 792.81 63.5943 793.322 65.5995C793.573 66.5814 794.935 71.8331 795.524 74.147C795.109 72.2411 794.412 68.4775 794.234 66.7633C793.984 62.7527 796.682 60.5081 798.216 60.0796C800.35 59.4839 804.497 59.9606 805.489 63.824L805.515 63.9252Z" fill="url(#paint28_radial_12_2)"/>
<path d="M805.515 63.9252C807.618 72.1204 810.199 82.1775 812.718 86.4357C813.59 85.1076 813.949 82.6861 815.693 76.9299C817.268 71.7321 821.737 72.0003 823.55 72.7076C827.553 74.3071 828.077 78.7432 827.664 80.2719C827.007 82.7089 827.011 82.6227 825.502 88.53C823.295 97.1682 825.512 104.375 824.499 111.924C822.008 126.052 808.404 130.811 799.737 129.283C792.804 128.06 786.65 122.401 784.44 119.724L773.533 105.559C772.16 104.04 768.946 99.2618 767.634 96.6088C764.058 89.3768 771.641 86.1682 775.271 87.948C775.01 87.665 773.716 84.3987 773.101 82.8011C771.593 77.7023 774.478 74.9919 776.354 74.4386C780.61 73.183 783.098 75.8786 783.794 77.2322C783.551 76.5816 782.885 74.0083 781.904 69.3309C780.924 64.6534 784.219 62.4519 785.989 61.9358C789.815 60.9235 792.81 63.5943 793.322 65.5995C793.573 66.5814 794.935 71.8331 795.524 74.147C795.109 72.2411 794.412 68.4775 794.234 66.7633C793.984 62.7527 796.682 60.5081 798.216 60.0796C800.35 59.4839 804.497 59.9606 805.489 63.824L805.515 63.9252Z" fill="url(#paint29_radial_12_2)"/>
<path d="M805.515 63.9252C807.618 72.1204 810.199 82.1775 812.718 86.4357C813.59 85.1076 813.949 82.6861 815.693 76.9299C817.268 71.7321 821.737 72.0003 823.55 72.7076C827.553 74.3071 828.077 78.7432 827.664 80.2719C827.007 82.7089 827.011 82.6227 825.502 88.53C823.295 97.1682 825.512 104.375 824.499 111.924C822.008 126.052 808.404 130.811 799.737 129.283C792.804 128.06 786.65 122.401 784.44 119.724L773.533 105.559C772.16 104.04 768.946 99.2618 767.634 96.6088C764.058 89.3768 771.641 86.1682 775.271 87.948C775.01 87.665 773.716 84.3987 773.101 82.8011C771.593 77.7023 774.478 74.9919 776.354 74.4386C780.61 73.183 783.098 75.8786 783.794 77.2322C783.551 76.5816 782.885 74.0083 781.904 69.3309C780.924 64.6534 784.219 62.4519 785.989 61.9358C789.815 60.9235 792.81 63.5943 793.322 65.5995C793.573 66.5814 794.935 71.8331 795.524 74.147C795.109 72.2411 794.412 68.4775 794.234 66.7633C793.984 62.7527 796.682 60.5081 798.216 60.0796C800.35 59.4839 804.497 59.9606 805.489 63.824L805.515 63.9252Z" fill="url(#paint30_radial_12_2)"/>
<path d="M808.521 74.9263C809.88 79.6417 811.316 83.9044 812.733 86.35C812.582 88.2764 812.557 89.3884 812.722 91.1036C809.773 86.8924 807.691 78.4532 808.521 74.9263Z" fill="url(#paint31_radial_12_2)"/>
<path fill-rule="evenodd" clip-rule="evenodd" d="M754.722 83.6192C755.564 83.7676 756.126 84.5706 755.977 85.4127C755.528 87.9602 755.957 91.5516 757.691 94.6955C759.395 97.7857 762.34 100.418 766.98 101.236C767.822 101.385 768.384 102.188 768.235 103.03C768.087 103.872 767.284 104.434 766.442 104.285C760.779 103.287 757.084 100.007 754.98 96.1908C752.905 92.4285 752.356 88.1195 752.928 84.875C753.077 84.0329 753.88 83.4707 754.722 83.6192Z" fill="url(#paint32_radial_12_2)"/>
<path fill-rule="evenodd" clip-rule="evenodd" d="M754.722 83.6192C755.564 83.7676 756.126 84.5706 755.977 85.4127C755.528 87.9602 755.957 91.5516 757.691 94.6955C759.395 97.7857 762.34 100.418 766.98 101.236C767.822 101.385 768.384 102.188 768.235 103.03C768.087 103.872 767.284 104.434 766.442 104.285C760.779 103.287 757.084 100.007 754.98 96.1908C752.905 92.4285 752.356 88.1195 752.928 84.875C753.077 84.0329 753.88 83.4707 754.722 83.6192Z" fill="url(#paint33_radial_12_2)"/>
<path fill-rule="evenodd" clip-rule="evenodd" d="M754.722 83.6192C755.564 83.7676 756.126 84.5706 755.977 85.4127C755.528 87.9602 755.957 91.5516 757.691 94.6955C759.395 97.7857 762.34 100.418 766.98 101.236C767.822 101.385 768.384 102.188 768.235 103.03C768.087 103.872 767.284 104.434 766.442 104.285C760.779 103.287 757.084 100.007 754.98 96.1908C752.905 92.4285 752.356 88.1195 752.928 84.875C753.077 84.0329 753.88 83.4707 754.722 83.6192Z" fill="url(#paint34_radial_12_2)"/>
<path fill-rule="evenodd" clip-rule="evenodd" d="M749.017 88.2212C749.859 88.3696 750.421 89.1725 750.273 90.0147C749.32 95.4186 752.095 103.353 760.596 104.852C761.438 105.001 762 105.804 761.851 106.646C761.703 107.488 760.9 108.05 760.058 107.901C749.369 106.017 746.071 96.0116 747.224 89.477C747.372 88.6349 748.175 88.0727 749.017 88.2212Z" fill="url(#paint35_radial_12_2)"/>
<path fill-rule="evenodd" clip-rule="evenodd" d="M749.017 88.2212C749.859 88.3696 750.421 89.1725 750.273 90.0147C749.32 95.4186 752.095 103.353 760.596 104.852C761.438 105.001 762 105.804 761.851 106.646C761.703 107.488 760.9 108.05 760.058 107.901C749.369 106.017 746.071 96.0116 747.224 89.477C747.372 88.6349 748.175 88.0727 749.017 88.2212Z" fill="url(#paint36_radial_12_2)"/>
<path fill-rule="evenodd" clip-rule="evenodd" d="M810.597 72.9137C809.754 72.7707 809.187 71.9714 809.33 71.1285C809.762 68.5779 809.31 64.9894 807.556 61.8569C805.831 58.7779 802.869 56.1649 798.224 55.3771C797.381 55.2341 796.814 54.4349 796.957 53.5919C797.1 52.749 797.899 52.1815 798.742 52.3245C804.411 53.286 808.127 56.5417 810.257 60.344C812.356 64.0927 812.933 68.3978 812.382 71.6462C812.24 72.4892 811.44 73.0566 810.597 72.9137Z" fill="url(#paint37_radial_12_2)"/>
<path fill-rule="evenodd" clip-rule="evenodd" d="M810.597 72.9137C809.754 72.7707 809.187 71.9714 809.33 71.1285C809.762 68.5779 809.31 64.9894 807.556 61.8569C805.831 58.7779 802.869 56.1649 798.224 55.3771C797.381 55.2341 796.814 54.4349 796.957 53.5919C797.1 52.749 797.899 52.1815 798.742 52.3245C804.411 53.286 808.127 56.5417 810.257 60.344C812.356 64.0927 812.933 68.3978 812.382 71.6462C812.24 72.4892 811.44 73.0566 810.597 72.9137Z" fill="url(#paint38_radial_12_2)"/>
<path fill-rule="evenodd" clip-rule="evenodd" d="M816.268 68.2746C815.425 68.1316 814.858 67.3324 815.001 66.4895C815.918 61.0793 813.092 53.163 804.581 51.7196C803.738 51.5767 803.171 50.7774 803.314 49.9345C803.457 49.0915 804.256 48.5241 805.099 48.667C815.8 50.482 819.163 60.4652 818.053 67.0072C817.91 67.8501 817.111 68.4176 816.268 68.2746Z" fill="url(#paint39_radial_12_2)"/>
<path fill-rule="evenodd" clip-rule="evenodd" d="M816.268 68.2746C815.425 68.1316 814.858 67.3324 815.001 66.4895C815.918 61.0793 813.092 53.163 804.581 51.7196C803.738 51.5767 803.171 50.7774 803.314 49.9345C803.457 49.0915 804.256 48.5241 805.099 48.667C815.8 50.482 819.163 60.4652 818.053 67.0072C817.91 67.8501 817.111 68.4176 816.268 68.2746Z" fill="url(#paint40_radial_12_2)"/>
<path d="M808.017 85.8081C802.147 87.0515 788.472 92.1244 781.975 107.654" stroke="#FFC339" stroke-width="4.29127" stroke-linecap="round"/>
</g>
<defs>
<filter id="filter0_i_12_2" x="0" y="0" width="934.732" height="176.994" filterUnits="userSpaceOnUse" color-interpolation-filters="sRGB">
<feFlood flood-opacity="0" result="BackgroundImageFix"/>
<feBlend mode="normal" in="SourceGraphic" in2="BackgroundImageFix" result="shape"/>
<feColorMatrix in="SourceAlpha" type="matrix" values="0 0 0 0 0 0 0 0 0 0 0 0 0 0 0 0 0 0 127 0" result="hardAlpha"/>
<feOffset dy="4"/>
<feGaussianBlur stdDeviation="2"/>
<feComposite in2="hardAlpha" operator="arithmetic" k2="-1" k3="1"/>
<feColorMatrix type="matrix" values="0 0 0 0 0 0 0 0 0 0 0 0 0 0 0 0 0 0 0.25 0"/>
<feBlend mode="normal" in2="shape" result="effect1_innerShadow_12_2"/>
</filter>
<linearGradient id="paint0_linear_12_2" x1="467.366" y1="0" x2="467.366" y2="172.994" gradientUnits="userSpaceOnUse">
<stop stop-color="#8756D6"/>
<stop offset="1" stop-color="#C49651"/>
</linearGradient>
<radialGradient id="paint1_radial_12_2" cx="0" cy="0" r="1" gradientUnits="userSpaceOnUse" gradientTransform="translate(799.081 82.5005) rotate(70.1006) scale(60.4685 39.5033)">
<stop offset="0.00323036" stop-color="#FFC133"/>
<stop offset="0.697824" stop-color="#FFC53F"/>
<stop offset="0.797459" stop-color="#FFAD3E"/>
<stop offset="0.945275" stop-color="#EC7D58"/>
</radialGradient>
<radialGradient id="paint2_radial_12_2" cx="0" cy="0" r="1" gradientUnits="userSpaceOnUse" gradientTransform="translate(826.458 100.817) rotate(-83.0118) scale(35.8758 13.7439)">
<stop offset="0.00323036" stop-color="#FFE849"/>
<stop offset="1" stop-color="#FFE647" stop-opacity="0"/>
</radialGradient>
<radialGradient id="paint3_radial_12_2" cx="0" cy="0" r="1" gradientUnits="userSpaceOnUse" gradientTransform="translate(826.673 74.7877) rotate(109.682) scale(19.2132 7.36051)">
<stop offset="0.00323036" stop-color="#FFE849"/>
<stop offset="1" stop-color="#FFE647" stop-opacity="0"/>
</radialGradient>
<radialGradient id="paint4_radial_12_2" cx="0" cy="0" r="1" gradientUnits="userSpaceOnUse" gradientTransform="translate(813.121 84.1472) rotate(10) scale(7.77102 31.5144)">
<stop stop-color="#EE9F2C"/>
<stop offset="1" stop-color="#EE9F2C" stop-opacity="0"/>
</radialGradient>
<radialGradient id="paint5_radial_12_2" cx="0" cy="0" r="1" gradientUnits="userSpaceOnUse" gradientTransform="translate(814.358 96.7707) rotate(-84.0856) scale(13.0798 9.08495)">
<stop stop-color="#FFC93D"/>
<stop offset="1" stop-color="#FFC33A" stop-opacity="0"/>
</radialGradient>
<radialGradient id="paint6_radial_12_2" cx="0" cy="0" r="1" gradientUnits="userSpaceOnUse" gradientTransform="translate(810.609 75.9472) rotate(161.024) scale(13.749 27.619)">
<stop offset="0.563302" stop-color="#F09D2E" stop-opacity="0"/>
<stop offset="1" stop-color="#F09D2E"/>
</radialGradient>
<linearGradient id="paint7_linear_12_2" x1="801.247" y1="88.5993" x2="802.536" y2="81.2869" gradientUnits="userSpaceOnUse">
<stop stop-color="#FFC337"/>
<stop offset="1" stop-color="#FFC337" stop-opacity="0"/>
</linearGradient>
<radialGradient id="paint8_radial_12_2" cx="0" cy="0" r="1" gradientUnits="userSpaceOnUse" gradientTransform="translate(809.679 64.6819) rotate(-3.4957) scale(9.23095 20.413)">
<stop stop-color="#FFEC4C"/>
<stop offset="1" stop-color="#FFEC4C" stop-opacity="0"/>
</radialGradient>
<radialGradient id="paint9_radial_12_2" cx="0" cy="0" r="1" gradientUnits="userSpaceOnUse" gradientTransform="translate(795.384 58.9594) rotate(43.3064) scale(9.01182 6.98693)">
<stop stop-color="#D99F2B"/>
<stop offset="1" stop-color="#D99F2B" stop-opacity="0"/>
</radialGradient>
<linearGradient id="paint10_linear_12_2" x1="793.64" y1="77.0751" x2="798.434" y2="75.7329" gradientUnits="userSpaceOnUse">
<stop stop-color="#A85300"/>
<stop offset="0.824742" stop-color="#A85300" stop-opacity="0"/>
</linearGradient>
<radialGradient id="paint11_radial_12_2" cx="0" cy="0" r="1" gradientUnits="userSpaceOnUse" gradientTransform="translate(797.111 77.8815) rotate(159.148) scale(13.2534 27.6572)">
<stop offset="0.563302" stop-color="#F09D2E" stop-opacity="0"/>
<stop offset="1" stop-color="#F09D2E"/>
</radialGradient>
<linearGradient id="paint12_linear_12_2" x1="788.073" y1="90.883" x2="789.388" y2="83.4211" gradientUnits="userSpaceOnUse">
<stop stop-color="#FFC337"/>
<stop offset="1" stop-color="#FFC337" stop-opacity="0"/>
</linearGradient>
<radialGradient id="paint13_radial_12_2" cx="0" cy="0" r="1" gradientUnits="userSpaceOnUse" gradientTransform="translate(797.075 69.2953) rotate(-23.8929) scale(8.79553 26.778)">
<stop stop-color="#FFEC4C"/>
<stop offset="1" stop-color="#FFEC4C" stop-opacity="0"/>
</radialGradient>
<radialGradient id="paint14_radial_12_2" cx="0" cy="0" r="1" gradientUnits="userSpaceOnUse" gradientTransform="translate(788.591 78.828) rotate(-14.9048) scale(11.0839 50.6103)">
<stop offset="0.597587" stop-color="#F09D2E" stop-opacity="0"/>
<stop offset="1" stop-color="#F09D2E"/>
</radialGradient>
<radialGradient id="paint15_radial_12_2" cx="0" cy="0" r="1" gradientUnits="userSpaceOnUse" gradientTransform="translate(781.605 60.552) rotate(42.6006) scale(9.16307 7.30312)">
<stop stop-color="#D99F2B"/>
<stop offset="1" stop-color="#D99F2B" stop-opacity="0"/>
</radialGradient>
<linearGradient id="paint16_linear_12_2" x1="782.356" y1="79.5516" x2="785.66" y2="78.0139" gradientUnits="userSpaceOnUse">
<stop stop-color="#A85300"/>
<stop offset="0.824742" stop-color="#A85300" stop-opacity="0"/>
</linearGradient>
<radialGradient id="paint17_radial_12_2" cx="0" cy="0" r="1" gradientUnits="userSpaceOnUse" gradientTransform="translate(787.542 87.8599) rotate(147.351) scale(10.9797 21.5004)">
<stop offset="0.563302" stop-color="#F09D2E" stop-opacity="0"/>
<stop offset="1" stop-color="#F09D2E"/>
</radialGradient>
<linearGradient id="paint18_linear_12_2" x1="779.243" y1="98.6441" x2="780.347" y2="92.3825" gradientUnits="userSpaceOnUse">
<stop stop-color="#FFC337"/>
<stop offset="1" stop-color="#FFC337" stop-opacity="0"/>
</linearGradient>
<radialGradient id="paint19_radial_12_2" cx="0" cy="0" r="1" gradientUnits="userSpaceOnUse" gradientTransform="translate(786.525 78.1099) rotate(-2.2956) scale(8.36238 17.7138)">
<stop stop-color="#FFEC4C"/>
<stop offset="1" stop-color="#FFEC4C" stop-opacity="0"/>
</radialGradient>
<radialGradient id="paint20_radial_12_2" cx="0" cy="0" r="1" gradientUnits="userSpaceOnUse" gradientTransform="translate(779.507 88.4982) rotate(-30.2165) scale(11.6318 59.4657)">
<stop offset="0.597587" stop-color="#F09D2E" stop-opacity="0"/>
<stop offset="1" stop-color="#F09D2E"/>
</radialGradient>
<radialGradient id="paint21_radial_12_2" cx="0" cy="0" r="1" gradientUnits="userSpaceOnUse" gradientTransform="translate(772.563 72.9711) rotate(39.5034) scale(8.41207 6.33115)">
<stop stop-color="#D99F2B"/>
<stop offset="1" stop-color="#D99F2B" stop-opacity="0"/>
</radialGradient>
<radialGradient id="paint22_radial_12_2" cx="0" cy="0" r="1" gradientUnits="userSpaceOnUse" gradientTransform="translate(774.038 90.0247) rotate(-35.7639) scale(4.7607 21.4951)">
<stop stop-color="#A85300"/>
<stop offset="0.824742" stop-color="#A85300" stop-opacity="0"/>
</radialGradient>
<radialGradient id="paint23_radial_12_2" cx="0" cy="0" r="1" gradientUnits="userSpaceOnUse" gradientTransform="translate(782.969 99.734) rotate(153.369) scale(10.7943 20.3101)">
<stop offset="0.563302" stop-color="#F09D2E" stop-opacity="0"/>
<stop offset="1" stop-color="#F09D2E"/>
</radialGradient>
<radialGradient id="paint24_radial_12_2" cx="0" cy="0" r="1" gradientUnits="userSpaceOnUse" gradientTransform="translate(781.54 91.1958) rotate(0.0223504) scale(8.89865 15.4592)">
<stop stop-color="#FFEC4C"/>
<stop offset="1" stop-color="#FFEC4C" stop-opacity="0"/>
</radialGradient>
<radialGradient id="paint25_radial_12_2" cx="0" cy="0" r="1" gradientUnits="userSpaceOnUse" gradientTransform="translate(774.423 100.006) rotate(-24.3137) scale(11.5348 55.6892)">
<stop offset="0.597587" stop-color="#F09D2E" stop-opacity="0"/>
<stop offset="1" stop-color="#F09D2E"/>
</radialGradient>
<radialGradient id="paint26_radial_12_2" cx="0" cy="0" r="1" gradientUnits="userSpaceOnUse" gradientTransform="translate(766.468 86.2207) rotate(34.5478) scale(8.63339 5.72894)">
<stop stop-color="#D99F2B"/>
<stop offset="1" stop-color="#D99F2B" stop-opacity="0"/>
</radialGradient>
<linearGradient id="paint27_linear_12_2" x1="780.006" y1="119.241" x2="775.456" y2="103.423" gradientUnits="userSpaceOnUse">
<stop stop-color="#FFC337"/>
<stop offset="1" stop-color="#FFC337" stop-opacity="0"/>
</linearGradient>
<radialGradient id="paint28_radial_12_2" cx="0" cy="0" r="1" gradientUnits="userSpaceOnUse" gradientTransform="translate(812.978 81.1227) rotate(139.014) scale(49.906 80.7087)">
<stop offset="0.872168" stop-color="#F6814F" stop-opacity="0"/>
<stop offset="1" stop-color="#F7814F"/>
</radialGradient>
<radialGradient id="paint29_radial_12_2" cx="0" cy="0" r="1" gradientUnits="userSpaceOnUse" gradientTransform="translate(802.63 79.8451) rotate(86.293) scale(53.0328 58.1887)">
<stop offset="0.853453" stop-color="#F6814F" stop-opacity="0"/>
<stop offset="1" stop-color="#F7814F"/>
</radialGradient>
<radialGradient id="paint30_radial_12_2" cx="0" cy="0" r="1" gradientUnits="userSpaceOnUse" gradientTransform="translate(816.813 68.6742) rotate(74.44) scale(9.15382 8.16048)">
<stop stop-color="#D99F2B"/>
<stop offset="1" stop-color="#D99F2B" stop-opacity="0"/>
</radialGradient>
<radialGradient id="paint31_radial_12_2" cx="0" cy="0" r="1" gradientUnits="userSpaceOnUse" gradientTransform="translate(813.641 85.888) rotate(159.254) scale(3.48587 10.7866)">
<stop offset="0.200941" stop-color="#B4813D"/>
<stop offset="1" stop-color="#B4813D" stop-opacity="0"/>
</radialGradient>
<radialGradient id="paint32_radial_12_2" cx="0" cy="0" r="1" gradientUnits="userSpaceOnUse" gradientTransform="translate(756.746 84.8188) rotate(72.071) scale(15.2583 22.6288)">
<stop stop-color="#419FFD"/>
<stop offset="1" stop-color="#4B6DCB"/>
</radialGradient>
<radialGradient id="paint33_radial_12_2" cx="0" cy="0" r="1" gradientUnits="userSpaceOnUse" gradientTransform="translate(752.3 85.1892) rotate(12.3859) scale(2.15612 4.53757)">
<stop stop-color="#5486C7"/>
<stop offset="1" stop-color="#5486C7" stop-opacity="0"/>
</radialGradient>
<radialGradient id="paint34_radial_12_2" cx="0" cy="0" r="1" gradientUnits="userSpaceOnUse" gradientTransform="translate(766.076 100.105) rotate(121.801) scale(2.17519 6.39805)">
<stop stop-color="#5486C7"/>
<stop offset="1" stop-color="#5486C7" stop-opacity="0"/>
</radialGradient>
<radialGradient id="paint35_radial_12_2" cx="0" cy="0" r="1" gradientUnits="userSpaceOnUse" gradientTransform="translate(756.463 92.8503) rotate(104.712) scale(12.0687 20.2923)">
<stop stop-color="#419FFD"/>
<stop offset="1" stop-color="#4B6DCB"/>
</radialGradient>
<radialGradient id="paint36_radial_12_2" cx="0" cy="0" r="1" gradientUnits="userSpaceOnUse" gradientTransform="translate(746.637 89.7054) rotate(12.3848) scale(2.0567 4.32626)">
<stop stop-color="#5486C7"/>
<stop offset="1" stop-color="#5486C7" stop-opacity="0"/>
</radialGradient>
<radialGradient id="paint37_radial_12_2" cx="0" cy="0" r="1" gradientUnits="userSpaceOnUse" gradientTransform="translate(802.662 49.6228) rotate(70.1958) scale(12.8198 19.0123)">
<stop stop-color="#419FFD"/>
<stop offset="1" stop-color="#4B6DCB"/>
</radialGradient>
<radialGradient id="paint38_radial_12_2" cx="0" cy="0" r="1" gradientUnits="userSpaceOnUse" gradientTransform="translate(796.658 53.278) rotate(28.8618) scale(1.84436 2.96859)">
<stop stop-color="#4D8AC1"/>
<stop offset="1" stop-color="#4D8AC1" stop-opacity="0"/>
</radialGradient>
<radialGradient id="paint39_radial_12_2" cx="0" cy="0" r="1" gradientUnits="userSpaceOnUse" gradientTransform="translate(808.768 46.0795) rotate(70.69) scale(15.926 23.6251)">
<stop stop-color="#419FFD"/>
<stop offset="1" stop-color="#4B6DCB"/>
</radialGradient>
<radialGradient id="paint40_radial_12_2" cx="0" cy="0" r="1" gradientUnits="userSpaceOnUse" gradientTransform="translate(803.041 49.564) rotate(28.8531) scale(1.75923 2.83049)">
<stop stop-color="#4D8AC1"/>
<stop offset="1" stop-color="#4D8AC1" stop-opacity="0"/>
</radialGradient>
</defs>
</svg>
